<?xml version="1.0" encoding="UTF-8" standalone="no"?>
<svg width="63px" height="87px" viewBox="0 0 63 87" version="1.1" xmlns="http://www.w3.org/2000/svg" xmlns:xlink="http://www.w3.org/1999/xlink" xmlns:sketch="http://www.bohemiancoding.com/sketch/ns">
    <title>Artboard 1</title>
    <description>Created with Sketch (http://www.bohemiancoding.com/sketch)</description>
    <defs></defs>
    <g id="Page-1" stroke="none" stroke-width="1" fill="none" fill-rule="evenodd" sketch:type="MSPage">
        <g id="Artboard-1" sketch:type="MSArtboardGroup">
            <g id="Path-+-Fill-4" sketch:type="MSLayerGroup" transform="translate(2.000000, 3.000000)">
                <path d="M59.279,2.921 L59.277,70.413 C59.274,72.45 57.619,74.337 55.725,74.603 L3.322,81.969 C1.431,82.234 -0.004,80.78 0.001,78.745 L0,11.253 C0.003,9.21 1.554,7.321 3.447,7.056 L55.85,-0.31 C57.742,-0.576 59.283,0.879 59.279,2.921 Z" id="Path" fill="#4990E2" sketch:type="MSShapeGroup"></path>
                <path d="M11.682,54.126 L14.386,54.893 C16.086,55.384 16.695,56.341 16.692,57.974 C16.689,60.023 15.369,61.456 13.311,61.745 C11.122,62.054 10.028,60.818 10.032,58.109 L10.034,57.624 L8.105,57.894 L8.104,58.482 C8.097,62.651 9.831,63.97 13.338,63.477 C16.938,62.971 18.621,60.411 18.628,57.247 C18.632,55.236 17.763,53.618 15.45,53.007 L12.653,52.257 C10.721,51.728 10.337,50.775 10.339,49.488 C10.343,47.646 11.217,46.241 13.466,45.927 L19.747,45.044 C21.467,44.835 22.462,45.706 22.457,48.062 L22.452,50.942 L24.386,50.671 L24.392,47.79 C24.397,44.447 22.941,42.878 19.767,43.307 L13.503,44.187 C10.603,44.594 8.418,46.425 8.411,50.208 C8.408,52.053 9.27,53.462 11.682,54.126 Z M45.988,58.888 C49.209,58.436 51.205,55.548 51.505,51.583 L49.578,51.855 C49.244,55.132 47.99,56.872 45.96,57.157 C44.063,57.423 42.328,56.036 42.338,50.721 L42.339,49.851 L51.669,48.538 L51.671,47.776 C51.683,41.63 49.986,39.06 46.189,39.593 C42.423,40.122 40.294,43.648 40.281,50.036 C40.268,56.983 42.387,59.394 45.988,58.888 Z M32.35,60.805 C35.535,60.357 37.515,57.474 37.814,53.507 L35.897,53.776 C35.578,57.055 34.328,58.792 32.324,59.073 C30.443,59.337 28.726,57.946 28.736,52.632 L28.738,51.763 L37.972,50.464 L37.974,49.702 C37.986,43.556 36.307,40.982 32.546,41.511 C28.82,42.034 26.708,45.557 26.697,51.945 C26.684,58.893 28.786,61.306 32.35,60.805 Z M20.272,72.173 C19.981,72.214 19.756,72.175 19.532,72.175 L19.527,73.911 C19.854,73.936 20.204,73.919 20.589,73.864 C22.648,73.575 24.293,72.268 24.299,69.105 L24.329,52.286 L22.401,52.557 L22.372,68.685 C22.368,71.259 21.624,71.983 20.272,72.173 Z M45.99,41.355 C48.369,41.021 49.558,42.519 49.617,47.093 L42.342,48.114 C42.416,43.523 43.613,41.689 45.99,41.355 Z M32.352,43.272 C34.708,42.941 35.886,44.44 35.942,49.015 L28.741,50.026 C28.814,45.434 29.992,43.604 32.352,43.272 Z" id="Fill-4" fill="#FFFFFF" sketch:type="MSShapeGroup"></path>
            </g>
        </g>
    </g>
</svg>